<?xml version="1.0" encoding="UTF-8"?>
<svg version="1.1" xmlns="http://www.w3.org/2000/svg" width="500" height="500">
<path d="M0 0 C165 0 330 0 500 0 C500 165 500 330 500 500 C335 500 170 500 0 500 C0 335 0 170 0 0 Z " fill="#FEFEFE" transform="translate(0,0)"/>
<path d="M0 0 C81.51 0 163.02 0 247 0 C247 112.53 247 225.06 247 341 C215.65 341 184.3 341 152 341 C152 367.07 152 393.14 152 420 C101.84 420 51.68 420 0 420 C0 281.4 0 142.8 0 0 Z " fill="#FEDE59" transform="translate(87,40)"/>
<path d="M0 0 C26.07 0 52.14 0 79 0 C79 139.26 79 278.52 79 422 C-12.25639074 422 -12.25639074 422 -49.46289062 421.53643799 C-55.60875666 421.46115315 -61.75470818 421.39313367 -67.9006424 421.32368469 C-76.93383199 421.2209006 -85.96688057 421.10975368 -95 421 C-95 394.93 -95 368.86 -95 342 C-63.65 342 -32.3 342 0 342 C0 229.14 0 116.28 0 0 Z " fill="#4CB4EF" transform="translate(334,39)"/>
<path d="M0 0 C49.5 0 99 0 150 0 C150 31.68 150 63.36 150 96 C49.28571429 97.14285714 49.28571429 97.14285714 0 97 C0 64.99 0 32.98 0 0 Z " fill="#FEFEFE" transform="translate(184,285)"/>
<path d="M0 0 C49.5 0 99 0 150 0 C150 30.03 150 60.06 150 91 C100.5 91 51 91 0 91 C0 60.97 0 30.94 0 0 Z " fill="#FEFEFE" transform="translate(184,118)"/>
</svg>
